<svg width="90" height="25" fill="none" xmlns="http://www.w3.org/2000/svg"><g clip-path="url(#a)"><path d="M26.718 12.883a.849.849 0 0 1-.344-.073L19.16 9.588a.84.84 0 0 1 0-1.532l7.214-3.21a.844.844 0 0 1 1.11.423.84.84 0 0 1-.426 1.107l-5.496 2.447 5.497 2.456a.838.838 0 0 1-.341 1.604Z" fill="#67BECE"/><path d="M16.886 24.572c-7.931 0-14.865-5.34-16.859-12.987a.84.84 0 0 1 1.626-.422c1.809 6.913 8.07 11.735 15.233 11.733a.84.84 0 1 1 0 1.676Z" fill="#3F54A3"/><path d="M13.99 17.611a.84.84 0 0 1-.84-.838V.838a.84.84 0 0 1 1.68 0v15.935a.84.84 0 0 1-.84.838Z" fill="#67BECE"/><path d="M44.356 8.424v3.85c0 .056-.028.084-.084.084H40.73c-.056 0-.084-.028-.084-.084v-3.85c0-.14-.084-.224-.224-.224h-1.176c-.14 0-.224.084-.224.224v9.352c0 .14.084.224.224.224h1.176c.14 0 .224-.084.224-.224v-3.934c0-.056.028-.084.084-.084h3.542c.056 0 .084.042.084.084v3.934c0 .14.084.224.224.224h1.176c.14 0 .224-.084.224-.224V8.424c0-.14-.084-.224-.224-.224H44.58c-.14 0-.224.084-.224.224ZM49.56 18h1.176c.14 0 .224-.084.224-.224V8.424c0-.14-.084-.224-.224-.224H49.56c-.14 0-.224.084-.224.224v9.352c0 .14.084.224.224.224Zm10.384 0h1.232c.168 0 .238-.112.168-.266l-1.932-4.004c-.028-.042-.014-.098.042-.112 1.148-.336 1.862-1.274 1.862-2.576 0-1.708-1.162-2.856-2.898-2.856h-3.794c-.14 0-.224.084-.224.224v9.366c0 .14.084.224.224.224H55.8c.14 0 .224-.084.224-.224v-3.92c0-.056.042-.084.084-.084h1.638c.042 0 .084.014.098.056l1.834 4.004c.056.126.14.168.266.168Zm-3.836-8.414h2.086c.896 0 1.498.602 1.498 1.484 0 .854-.602 1.442-1.498 1.442h-2.086c-.056 0-.084-.028-.084-.084V9.67c0-.056.028-.084.084-.084ZM64.61 18h1.176c.14 0 .224-.084.224-.224V8.424c0-.14-.084-.224-.224-.224H64.61c-.14 0-.224.084-.224.224v9.352c0 .14.084.224.224.224Zm5.064 0h1.162c.14 0 .224-.07.224-.224l-.014-6.356c0-.084.056-.098.098-.028l3.92 6.454a.323.323 0 0 0 .28.154h1.148c.14 0 .224-.084.224-.224V8.424c0-.14-.084-.224-.224-.224h-1.176c-.14 0-.224.084-.224.224v6.314c0 .084-.056.098-.098.028l-3.92-6.412a.323.323 0 0 0-.28-.154h-1.12c-.14 0-.224.084-.224.224v9.352c0 .14.084.224.224.224Zm13.749.112c2.1 0 3.486-1.218 3.486-3.402v-1.736c0-.14-.084-.224-.224-.224h-3.122c-.14 0-.224.084-.224.224v.924c0 .14.084.224.224.224h1.652c.056 0 .084.028.084.084v.854c0 1.036-.7 1.652-1.806 1.652-1.148 0-1.96-.742-1.96-1.862v-3.5c0-1.12.756-1.862 1.89-1.862 1.148 0 1.876.742 1.876 1.736v.112c0 .07.084.126.224.126h1.162c.14 0 .224-.084.224-.224v-.056c0-1.764-1.386-3.094-3.486-3.094-2.114 0-3.514 1.316-3.514 3.318v3.388c0 1.988 1.4 3.318 3.514 3.318Z" fill="#7F8C8F"/></g><defs><clipPath id="a"><path fill="#fff" d="M0 0h90v24.572H0z"/></clipPath></defs></svg>